<svg width="580" height="580" xmlns="http://www.w3.org/2000/svg" data-name="Layer 1">
  <rect x="0" y="0" width="580" height="580" fill="white"/>
 <g>
  <title>Layer 1</title>
  <g id="svg_16">
   <circle fill="#feb8b8" r="70.6659" cy="148.31658" cx="292.53739" data-name="Ellipse 276" id="fff0188c-9915-4c0d-8339-9317a77083e8"/>
   <path fill="#2f2e41" d="m358.54006,87.35191a81.61376,81.61376 0 0 0 -46.43,-35.49166l-8.6754,6.33079l0,-8.22035a75.12281,75.12281 0 0 0 -14.03207,-0.81741l-7.48468,6.7722l0,-6.20957a80.83444,80.83444 0 0 0 -55.76328,33.16889c-16.25407,23.43225 -18.99783,56.03165 -3.01076,79.65191c4.38811,-13.48715 9.71486,-26.14193 14.1043,-39.62775a39.91571,39.91571 0 0 0 10.39873,0.05039l5.339,-12.45857l1.49177,11.93136c16.54971,-1.44138 41.0963,-4.60742 56.785,-7.50784l-1.52581,-9.15355l9.12769,7.606c4.80635,-1.10624 7.66041,-2.11028 7.42476,-2.87726c11.66844,18.81119 25.94847,30.82566 37.61558,49.63682c4.43172,-26.5248 9.53234,-48.57975 -5.36483,-72.7844z" data-name="Path 1461" id="ac220ed6-7c3f-4d1e-8d82-3295770c496a"/>
   <path id="svg_8" fill="#606c38" d="m444.51972,330.03634c-2.43,-14.61929 -4.93649,-29.51921 -11.73089,-42.68893c-4.46552,-8.62629 -11.55394,-16.84664 -21.1096,-18.55231a20.4215,20.4215 0 0 1 -5.49659,-1.27245c-2.79985,-1.34871 -40.42516,-22.82733 -46.40535,-26.56828c-5.13471,-3.21152 -13.24023,-9.158 -17.32725,-9.158c-4.11163,-0.09038 -19.87765,3.579 -81.41374,-1.23129c0,0 -16.90485,6.66319 -29.98543,14.74285c-0.19823,-0.13063 -63.869,34.06031 -66.261,33.97034c-4.53005,-0.19075 -8.74079,2.70971 -11.33775,6.36219c-2.5963,3.65239 -3.81429,8.174 -5.08948,12.54576c13.90677,30.97 26.6308,61.97961 40.5389,92.94963a7.93068,7.93068 0 0 1 1.00579,3.81454a9.30964,9.30964 0 0 1 -1.7302,3.81453c-6.82034,10.95592 -6.60348,24.736 -5.85845,37.61284c0.74569,12.87686 1.66766,26.47839 -4.087,38.02019c-1.56523,3.16878 -3.60075,6.06924 -5.08948,9.238c-3.48634,7.17681 -4.74624,30.13086 -2.71,37.84166l255.12065,7.30869c-5.48539,-15.07829 18.96687,-198.74996 18.96687,-198.74996z"/>
   <path fill="#fbbebe" d="m126.31021,392.50904a45.04293,45.04293 0 0 0 -0.15258,11.10851l3.65653,52.51275c0.34331,4.94938 0.68117,9.88653 1.14573,14.82359c0.87734,9.58136 2.18792,19.08639 3.81455,28.57778a5.08966,5.08966 0 0 0 5.21639,4.94937c16.096,3.40585 32.72612,3.26965 49.15321,2.34185c25.067,-1.39909 89.1978,-4.0461 93.11589,-9.13583s1.63483,-13.32231 -3.474,-17.43793s-89.73865,-14.14932 -89.73865,-14.14932c0.82693,-6.55285 3.32139,-12.72429 5.68777,-18.946c4.25049,-11.03491 8.22035,-22.43228 8.29664,-34.2533s-4.37719,-24.24962 -14.0607,-31.02182c-7.9656,-5.5597 -18.22129,-6.591 -27.928,-6.3621c-7.06238,0.203 -19.26485,-1.48907 -25.71553,1.27245c-5.1046,2.24787 -8.06361,10.72166 -9.01725,15.72z" data-name="Path 1421" id="bb46eb08-8e3e-4ac5-913b-26d221d967b9"/>
   <path fill="#606c38" d="m147.62674,299.12891a13.16962,13.16962 0 0 0 -2.82413,4.51753a213.58786,213.58786 0 0 0 -17.94063,73.3156a7.32926,7.32926 0 0 1 -0.82693,3.55028a15.53466,15.53466 0 0 1 -1.87049,2.023a7.02422,7.02422 0 0 0 0.84,9.89817q0.17346,0.1463 0.35609,0.28121c2.09937,-3.95082 7.125,-5.24231 11.59215,-5.58556c21.38872,-1.692 42.28155,8.25852 63.73432,7.50784c-1.51355,-5.23 -3.69057,-10.25571 -4.92486,-15.54841c-5.4589,-23.50169 8.15632,-49.08916 -0.19073,-71.72579c-1.6675,-4.52979 -4.45348,-8.98325 -8.84294,-10.96818a23.55527,23.55527 0 0 0 -5.66189,-1.49858c-5.42075,-0.97952 -16.21183,-5.166 -21.45275,-3.48622c-1.93452,0.624 -2.69742,2.44268 -4.3009,3.54209c-2.43585,1.55588 -5.66731,2.12802 -7.68631,4.17702z" data-name="Path 1430" id="efe93a1e-ccdd-49fd-af5f-e26394aa0937"/>
   <path fill="#fbbebe" d="m444.6724,376.78901c-6.45068,-2.76152 -18.65315,-1.06948 -25.71553,-1.27245c-9.70666,-0.22892 -19.96235,0.8024 -27.928,6.3621c-9.68351,6.7722 -14.137,19.2008 -14.0607,31.02182s4.04615,23.21839 8.29664,34.2533c2.36638,6.22174 4.86084,12.39318 5.68777,18.946c0,0 -84.62988,10.0337 -89.73865,14.14932s-7.39205,12.34819 -3.474,17.43793s126.17305,10.19983 142.2691,6.794a5.08966,5.08966 0 0 0 5.21639,-4.94937c1.62663,-9.49139 2.93721,-18.99642 3.81455,-28.57778c0.46456,-4.93706 0.80242,-9.87421 1.14573,-14.82359l3.65653,-52.51275a45.04293,45.04293 0 0 0 -0.15258,-11.10851c-0.95354,-4.99833 -3.91255,-13.47212 -9.01725,-15.72002z" data-name="Path 1421" id="a38c3c09-000b-42b7-8619-0229d8aff5e9"/>
   <path fill="#606c38" d="m424.68689,294.95191c-1.60348,-1.09941 -2.36638,-2.91813 -4.3009,-3.54209c-5.24092,-1.67976 -16.032,2.5067 -21.45275,3.48622a23.55527,23.55527 0 0 0 -5.66189,1.49858c-4.38946,1.98493 -7.17544,6.43839 -8.84294,10.96818c-8.34705,22.63663 5.26817,48.2241 -0.19073,71.72579c-1.23429,5.2927 -3.41131,10.3184 -4.92486,15.54841c21.45277,0.75068 42.3456,-9.19987 63.73432,-7.50784c4.46712,0.34325 9.49278,1.63474 11.59215,5.58556q0.18253,-0.13482 0.35609,-0.28121a7.02422,7.02422 0 0 0 0.84005,-9.89817a15.53466,15.53466 0 0 1 -1.87049,-2.023a7.32926,7.32926 0 0 1 -0.82693,-3.55028a213.58786,213.58786 0 0 0 -17.94066,-73.31562a13.16962,13.16962 0 0 0 -2.82413,-4.51753c-2.019,-2.049 -5.25046,-2.62114 -7.68633,-4.177z" data-name="Path 1430" id="bd3879bf-5d05-49be-b690-c4d97e29a2ab"/>
   <circle id="svg_9" fill="#fbbebe" r="19.07275" cy="487.91619" cx="271.6084"/>
   <circle id="svg_10" fill="#fbbebe" r="19.07275" cy="487.91619" cx="313.84091"/>
   <path id="svg_11" fill="#3f3d56" d="m431.57231,530.8941l-262.03079,0a11.55237,11.55237 0 0 1 -11.53931,-11.53864l0,-158.96663a11.55237,11.55237 0 0 1 11.53931,-11.53864l262.03079,0a11.55237,11.55237 0 0 1 11.5393,11.53864l0,158.96663a11.55237,11.55237 0 0 1 -11.5393,11.53864z"/>
   <circle fill="#fff" r="7.63455" cy="439.87218" cx="299.92129" data-name="Ellipse 263" id="bf1cdf42-3b4f-4239-91c9-f6802a29e918"/>
   <path id="svg_13" fill="#606c38" d="m227.5555,174.65514l0,0c-11.3546,0 -20.55934,-9.95244 -20.55934,-22.22945l0,0l0,-11.11478c0,-12.277 9.20473,-22.22945 20.55933,-22.22945l0,0l0,55.57369l0.00001,-0.00001z"/>
   <path id="svg_14" fill="#606c38" d="m358.77921,119.08149l0,0c11.35461,0 20.55935,9.95245 20.55935,22.22943l0,11.11477c0,12.277 -9.20472,22.22945 -20.55935,22.22945l0,0l0,-55.57365z"/>
   <path id="svg_15" fill="#606c38" d="m369.55257,143.05755l-3.262,0c0,-44.73 -33.65638,-81.12069 -75.026,-81.12069c-41.36939,0 -75.02605,36.3907 -75.02605,81.12069l-3.262,0c0,-46.6749 35.11988,-84.64766 78.288,-84.64766c43.16846,0.00002 78.28805,37.97279 78.28805,84.64766z"/>
  </g>
 </g>
</svg>